<svg width="400" height="225" viewBox="0 0 400 225" fill="none" xmlns="http://www.w3.org/2000/svg">
  <!-- Fondo oscuro que coincide con el tema de la app (zinc-900) -->
  <rect width="400" height="225" fill="#18181b" />

  <!-- Grupo de icono de imagen minimalista y moderno -->
  <!-- El color de relleno es un gris neutro (zinc-700) para que no distraiga -->
  <g transform="translate(160 65)" fill="#3f3f46">
    <!-- Marco del icono de imagen -->
    <path d="M74.6667 6.66667H5.33333C3.12381 6.66667 1.33333 8.45714 1.33333 10.6667V69.3333C1.33333 71.5429 3.12381 73.3333 5.33333 73.3333H74.6667C76.8762 73.3333 78.6667 71.5429 78.6667 69.3333V10.6667C78.6667 8.45714 76.8762 6.66667 74.6667 6.66667ZM0 10.6667C0 7.68629 2.38048 5.33333 5.33333 5.33333H74.6667C77.6195 5.33333 80 7.68629 80 10.6667V69.3333C80 72.3137 77.6195 74.6667 74.6667 74.6667H5.33333C2.38048 74.6667 0 72.3137 0 69.3333V10.6667Z" />
    <!-- Sol -->
    <path d="M21.3333 24C23.8856 24 26 21.8856 26 19.3333C26 16.7811 23.8856 14.6667 21.3333 14.6667C18.7811 14.6667 16.6667 16.7811 16.6667 19.3333C16.6667 21.8856 18.7811 24 21.3333 24Z" />
    <!-- Montañas -->
    <path d="M78.6667 58.4286L60 36L48 51.3333L32 30.6667L1.33333 72H78.6667V58.4286Z" />
  </g>

  <!-- Texto de fallback con una fuente moderna y legible (zinc-400) -->
  <text x="200" y="165" text-anchor="middle" fill="#a1a1aa" font-family="Inter, system-ui, -apple-system, BlinkMacSystemFont, 'Segoe UI', Roboto, 'Helvetica Neue', Arial, 'Noto Sans', sans-serif, 'Apple Color Emoji', 'Segoe UI Emoji', 'Segoe UI Symbol', 'Noto Color Emoji'" font-size="14" font-weight="500">
    Sin miniatura
  </text>
</svg>